<svg width="64" height="64" viewBox="0 0 64 64" fill="none" xmlns="http://www.w3.org/2000/svg">
<g clip-path="url(#clip0_1_2)">
<path d="M0 64H64V16L48 0H0V64Z" fill="#111111"/>
<path d="M25.669 18.52L32.689 36.237H32.692L42.195 18.432C42.2693 18.2937 42.3816 18.1795 42.5187 18.103C42.6559 18.0265 42.8121 17.9908 42.9688 18.0003C43.1255 18.0098 43.2763 18.0639 43.4032 18.1564C43.5301 18.2488 43.6279 18.3757 43.685 18.522L47 27.041C47.0404 27.1478 47.0577 27.2619 47.0508 27.3758C47.0439 27.4897 47.013 27.6009 46.96 27.702L39.145 42.52C38.5848 43.5735 37.7478 44.4543 36.7242 45.0675C35.7007 45.6807 34.5292 46.0031 33.336 46H28.84C28.7069 46 28.5759 45.9677 28.458 45.906C28.3633 45.8571 28.2792 45.7899 28.2107 45.7082C28.1421 45.6266 28.0904 45.5321 28.0586 45.4304C28.0268 45.3287 28.0155 45.2216 28.0254 45.1155C28.0352 45.0093 28.066 44.9062 28.116 44.812L31.666 38.162L28.092 29.328L21.13 42.519C20.57 43.5726 19.7333 44.4534 18.7098 45.0668C17.6864 45.6802 16.5151 46.0028 15.322 46H10.824C10.6891 45.9997 10.5561 45.9675 10.436 45.906C10.3414 45.857 10.2574 45.7897 10.1889 45.7081C10.1204 45.6264 10.0687 45.5321 10.0369 45.4304C10.005 45.3287 9.99352 45.2217 10.0032 45.1156C10.0128 45.0095 10.0433 44.9063 10.093 44.812L24.18 18.431C24.2547 18.2933 24.3672 18.1798 24.5042 18.1037C24.6411 18.0277 24.7969 17.9923 24.9533 18.0016C25.1097 18.0109 25.2602 18.0647 25.3871 18.1565C25.514 18.2483 25.6122 18.3744 25.67 18.52H25.669ZM50.959 37.498C51.1336 37.5902 51.2685 37.7432 51.338 37.928L53.949 44.908C53.9861 45.0081 54.0029 45.1145 53.9985 45.2212C53.9941 45.3278 53.9687 45.4325 53.9236 45.5292C53.8785 45.626 53.8146 45.7128 53.7357 45.7847C53.6568 45.8565 53.5645 45.9121 53.464 45.948C53.3733 45.981 53.2775 45.998 53.181 45.998H46.749C46.6085 45.9984 46.4702 45.9624 46.3478 45.8934C46.2253 45.8245 46.1228 45.725 46.0503 45.6046C45.9778 45.4842 45.9377 45.3471 45.934 45.2066C45.9302 45.0661 45.963 44.9271 46.029 44.803L49.849 37.826C49.9534 37.636 50.1286 37.495 50.3365 37.4335C50.5444 37.3721 50.7681 37.3953 50.959 37.498V37.498Z" fill="white"/>
</g>
<defs>
<clipPath id="clip0_1_2">
<rect width="64" height="64" fill="white" transform="matrix(1 0 0 -1 0 64)"/>
</clipPath>
</defs>
</svg>
